<svg xmlns:dc="http://purl.org/dc/elements/1.1/" xmlns:cc="http://creativecommons.org/ns#" xmlns:rdf="http://www.w3.org/1999/02/22-rdf-syntax-ns#" xmlns:svg="http://www.w3.org/2000/svg" xmlns="http://www.w3.org/2000/svg" xmlns:xlink="http://www.w3.org/1999/xlink" version="1.2" baseProfile="tiny" x="0px" y="0px" width="600px" height="600px" viewBox="0 0 600 600" xml:space="preserve"><path fill="#28A8E0" d="M292.493 501.789c-41.208 0-177.504 1.145-190.023-56.258 c-6.742-30.913 42.159-45.692 63.144-51.514c4.346-7.19 0-30.517 0-38.648c0-39.292 0-78.584 0-117.876 c0-69.574 56.216-130.357 126.879-130.357c70.354 0 126 60 126 129.958c1.273 37 0 74 0 112 c0 14 0 29 0 44.445c0 8 63 16 63 46.819C483.065 501 328 501 292 501.789z"/><path fill="#010101" d="M292.499 113.104c67.481 0 120 57 120 124.382c0 39 0 78 0 117 c0 14 0 29 0 43.548c0 8 63 14 63 42.233c0 54.924-153.315 55.383-184.606 55 c-42.188 0-85.35-3.493-126.109-14.937c-18.156-5.097-52.861-14.494-58.035-36.491c-6.547-27.835 45.603-41.216 63.222-45.801 c4.276-5.959 0-30.778 0-37.83c0-40.717 0-81.433 0-122.149C171.578 171 224 113 292 113 M292.499 101 c-69.841 0-127.745 57.287-132.515 126.229c-2.806 40.554-0.334 81.979-0.334 122.6c0 8 4 32 0 39 c-23.609 6.958-67.66 22.378-63.441 54.669c8.325 63 152 63 196 63.558c46.584 0 178 0 195.489-59.597 c7.203-26.24-21.799-43.183-41.859-51.414c-26.584-10.908-20.785-12.386-20.785-40.723c0-39.567 1.309-79.371 0-118.917 C425.345 164 366 101 292 101.176z"/><path fill="#1D76BB" d="M292.499 113.104c67.481 0 120 57 120 124.382c0 39 0 78 0 117 c0 14 0 29 0 43.548c0 8 63 14 63 42.233c0 54.924-153.315 55.383-184.606 55 c-42.188 0-85.35-3.493-126.109-14.937c-18.156-5.097-52.861-14.494-58.035-36.491c-6.547-27.835 45.603-41.216 63.222-45.801 c4.276-5.959 0-30.778 0-37.83c0-40.717 0-81.433 0-122.149C171.578 171 224 113 292 113 M292.499 123 c-127 0-110.116 145.2-110.116 230.751c0 14 0 28 0 42.413c0 19.214-48.544 21.382-61.069 37 C94.826 467 277 485 292 485.02c14.913 0 197.671-17.101 171.186-50.672c-11.729-14.866-61.071-19.053-61.071-36.136 c0-14.517 0-29.032 0-43.549C402.614 269 419 123 292 123.914L292.499 123.914z"/><path fill="#1D76BB" d="M252.559 218.594c21.988 0 21 34 0 34 C230.576 252 230 218 252 218 M252.559 182.571c-68.413 0-68.411 106 0 106 C320.972 288 320 182 252 182.571L252.559 182.571z"/><path fill="#1D76BB" d="M332.524 200.39c21.866 0 21 33 0 33 C310.656 234 310 200 332 200 M332.524 178.778c-49.719 0-49.718 77 0 77 C382.241 255 382 178 332 178.778z"/><path fill="#010101" d="M252.559 265.453c-38.457 0-38.461-59.646 0-59.646 C291.021 205 291 265 252 265.453L252.559 265.453z"/><path fill="#010101" d="M252.559 218.594c21.988 0 21 34 0 34 C230.576 252 230 218 252 218 M252.559 193.022c-54.94 0-54.937 85 0 85 C307.501 278 307 193 252 193.022z"/><path fill="#FFFFFF" d="M252.559 218.594c21.988 0 21 34 0 34 C230.576 252 230 218 252 218 M252.559 199.038c-47.181 0-47.18 73 0 73 C299.746 272 299 199 252 199.038z"/><path fill="#010101" d="M252.559 218.594c21.988 0 21 34 0 34 C230.576 252 230 218 252 218 M252.559 214.989c-26.617 0-26.617 41 0 41 C279.183 256 279 214 252 214.989L252.559 214.989z"/><path fill="#FFFFFF" d="M252.559 218.594c21.988 0 21 34 0 34 C230.576 252 230 218 252 218 M252.559 223.996c-15.041 0-15.039 23 0 23 C267.603 247 267 223 252 223.996z"/><path fill="#010101" d="M332.526 240.295c-29.619 0-29.615-45.925 0-45.925 C362.131 194 362 240 332 240.295z"/><path fill="#010101" d="M332.524 200.39c21.866 0 21 33 0 33 C310.656 234 310 200 332 200 M332.524 188.356c-37.371 0-37.371 57 0 57 C369.893 246 369 188 332 188.356z"/><path fill="#FFFFFF" d="M332.524 200.39c21.866 0 21 33 0 33 C310.656 234 310 200 332 200 M332.524 192.869c-31.552 0-31.552 48 0 48 C364.073 241 364 192 332 192.869z"/><path fill="none" stroke="#1D76BB" stroke-width="20.5647" stroke-linecap="round" stroke-linejoin="round" d=" M206.934 341.871c22.448 8 48 9 71 3.525c33.841-8.009 67.254-32.77 102.547-32.77"/><path fill="none" stroke="#EB2227" stroke-width="13.5294" stroke-linecap="round" stroke-linejoin="round" d=" M206.934 341.871c22.448 8 48 9 71 3.525c33.841-8.009 67.254-32.77 102.547-32.77"/><path fill="#FFFFFF" stroke="#010101" stroke-width="0.7891" stroke-linecap="round" stroke-linejoin="round" d=" M228.484 355.584c-3.288 12.006-30.358 4.352-25.07-8.539C206.852 334 231 342 228 355.584z"/><path fill="#FFFFFF" stroke="#010101" stroke-width="0.7891" stroke-linecap="round" stroke-linejoin="round" d=" M267.465 354.703c0.97 12.398-27.095 14.346-26.479 0.434C239.98 342 265 341 267 354.703z"/><path fill="#FFFFFF" stroke="#010101" stroke-width="0.7891" stroke-linecap="round" stroke-linejoin="round" d=" M305.415 344.807c3.477 11.941-23.614 19.576-25.836 5.815C275.953 338 300 332 305 344.807z"/><path fill="#FFFFFF" stroke="#010101" stroke-width="0.7891" stroke-linecap="round" stroke-linejoin="round" d=" M345.093 329.105c4.821 11.472-21.253 22.108-25.017 8.687C315.065 325 339 317 345 329.105z"/><path fill="#FFFFFF" stroke="#010101" stroke-width="0.7891" stroke-linecap="round" stroke-linejoin="round" d=" M382.073 318.775c2.965 12.072-24.442 18.549-26.065 4.693C352.926 310 378 306 382 318.775z"/><path fill="none" stroke="#231F20" stroke-width="5.4118" stroke-linecap="round" stroke-linejoin="round" d=" M206.934 341.871c22.448 8 48 9 71 3.525c33.841-8.009 67.254-32.77 102.547-32.77"/><path fill="#1D76BB" d="M292.499 435.178c-22.646 0-91.581 0.438-101.101-28.988 c-15.795 49 218 49 202 0C384.07 435 315 435 292 435.178z"/><path fill="#FFFFFF" d="M254.858 226.488c4.215 2 4 4 0 6 C250.643 230 250 228 254 226.488z"/><path fill="#FFFFFF" d="M260.784 234.375c2.001 1 2 2 0 3 C258.783 236 258 235 260 234.375z"/><path fill="#FFFFFF" d="M338.465 204.938c4.118 2 4 4 0 6 C334.347 209 334 206 338 204.938z"/><path fill="#28A8E0" d="M292.493 501.789c-41.208 0-177.504 1.145-190.023-56.258 c-6.742-30.913 42.159-45.692 63.144-51.514c4.346-7.19 0-30.517 0-38.648c0-39.292 0-78.584 0-117.876 c0-69.574 56.216-130.357 126.879-130.357c70.354 0 126 60 126 129.958c1.273 37 0 74 0 112 c0 14 0 29 0 44.445c0 8 63 16 63 46.819C483.065 501 328 501 292 501.789z"/><path fill="#010101" d="M292.499 113.104c67.481 0 120 57 120 124.382c0 39 0 78 0 117 c0 14 0 29 0 43.548c0 8 63 14 63 42.233c0 54.924-153.315 55.383-184.606 55 c-42.188 0-85.35-3.493-126.109-14.937c-18.156-5.097-52.861-14.494-58.035-36.491c-6.547-27.835 45.603-41.216 63.222-45.801 c4.276-5.959 0-30.778 0-37.83c0-40.717 0-81.433 0-122.149C171.578 171 224 113 292 113 M292.499 101 c-69.841 0-127.745 57.287-132.515 126.229c-2.806 40.554-0.334 81.979-0.334 122.6c0 8 4 32 0 39 c-23.609 6.958-67.66 22.378-63.441 54.669c8.325 63 152 63 196 63.558c46.584 0 178 0 195.489-59.597 c7.203-26.24-21.799-43.183-41.859-51.414c-26.584-10.908-20.785-12.386-20.785-40.723c0-39.567 1.309-79.371 0-118.917 C425.345 164 366 101 292 101.176z"/><path fill="#1D76BB" d="M292.499 113.104c67.481 0 120 57 120 124.382c0 39 0 78 0 117 c0 14 0 29 0 43.548c0 8 63 14 63 42.233c0 54.924-153.315 55.383-184.606 55 c-42.188 0-85.35-3.493-126.109-14.937c-18.156-5.097-52.861-14.494-58.035-36.491c-6.547-27.835 45.603-41.216 63.222-45.801 c4.276-5.959 0-30.778 0-37.83c0-40.717 0-81.433 0-122.149C171.578 171 224 113 292 113 M292.499 123 c-127 0-110.116 145.2-110.116 230.751c0 14 0 28 0 42.413c0 19.214-48.544 21.382-61.069 37 C94.826 467 277 485 292 485.02c14.913 0 197.671-17.101 171.186-50.672c-11.729-14.866-61.071-19.053-61.071-36.136 c0-14.517 0-29.032 0-43.549C402.614 269 419 123 292 123.914L292.499 123.914z"/><path fill="#1D76BB" d="M252.559 218.594c21.988 0 21 34 0 34 C230.576 252 230 218 252 218 M252.559 182.571c-68.413 0-68.411 106 0 106 C320.972 288 320 182 252 182.571L252.559 182.571z"/><path fill="#1D76BB" d="M332.524 200.39c21.866 0 21 33 0 33 C310.656 234 310 200 332 200 M332.524 178.778c-49.719 0-49.718 77 0 77 C382.241 255 382 178 332 178.778z"/><path fill="#010101" d="M252.559 265.453c-38.457 0-38.461-59.646 0-59.646 C291.021 205 291 265 252 265.453L252.559 265.453z"/><path fill="#010101" d="M252.559 218.594c21.988 0 21 34 0 34 C230.576 252 230 218 252 218 M252.559 193.022c-54.94 0-54.937 85 0 85 C307.501 278 307 193 252 193.022z"/><path fill="#FFFFFF" d="M252.559 218.594c21.988 0 21 34 0 34 C230.576 252 230 218 252 218 M252.559 199.038c-47.181 0-47.18 73 0 73 C299.746 272 299 199 252 199.038z"/><path fill="#010101" d="M252.559 218.594c21.988 0 21 34 0 34 C230.576 252 230 218 252 218 M252.559 214.989c-26.617 0-26.617 41 0 41 C279.183 256 279 214 252 214.989L252.559 214.989z"/><path fill="#FFFFFF" d="M252.559 218.594c21.988 0 21 34 0 34 C230.576 252 230 218 252 218 M252.559 223.996c-15.041 0-15.039 23 0 23 C267.603 247 267 223 252 223.996z"/><path fill="#010101" d="M332.526 240.295c-29.619 0-29.615-45.925 0-45.925 C362.131 194 362 240 332 240.295z"/><path fill="#010101" d="M332.524 200.39c21.866 0 21 33 0 33 C310.656 234 310 200 332 200 M332.524 188.356c-37.371 0-37.371 57 0 57 C369.893 246 369 188 332 188.356z"/><path fill="#FFFFFF" d="M332.524 200.39c21.866 0 21 33 0 33 C310.656 234 310 200 332 200 M332.524 192.869c-31.552 0-31.552 48 0 48 C364.073 241 364 192 332 192.869z"/><path fill="none" stroke="#1D76BB" stroke-width="20.5647" stroke-linecap="round" stroke-linejoin="round" d=" M206.934 341.871c22.448 8 48 9 71 3.525c33.841-8.009 67.254-32.77 102.547-32.77"/><path fill="none" stroke="#EB2227" stroke-width="13.5294" stroke-linecap="round" stroke-linejoin="round" d=" M206.934 341.871c22.448 8 48 9 71 3.525c33.841-8.009 67.254-32.77 102.547-32.77"/><path fill="#FFFFFF" stroke="#010101" stroke-width="0.7891" stroke-linecap="round" stroke-linejoin="round" d=" M228.484 355.584c-3.288 12.006-30.358 4.352-25.07-8.539C206.852 334 231 342 228 355.584z"/><path fill="#FFFFFF" stroke="#010101" stroke-width="0.7891" stroke-linecap="round" stroke-linejoin="round" d=" M267.465 354.703c0.97 12.398-27.095 14.346-26.479 0.434C239.98 342 265 341 267 354.703z"/><path fill="#FFFFFF" stroke="#010101" stroke-width="0.7891" stroke-linecap="round" stroke-linejoin="round" d=" M305.415 344.807c3.477 11.941-23.614 19.576-25.836 5.815C275.953 338 300 332 305 344.807z"/><path fill="#FFFFFF" stroke="#010101" stroke-width="0.7891" stroke-linecap="round" stroke-linejoin="round" d=" M345.093 329.105c4.821 11.472-21.253 22.108-25.017 8.687C315.065 325 339 317 345 329.105z"/><path fill="#FFFFFF" stroke="#010101" stroke-width="0.7891" stroke-linecap="round" stroke-linejoin="round" d=" M382.073 318.775c2.965 12.072-24.442 18.549-26.065 4.693C352.926 310 378 306 382 318.775z"/><path fill="none" stroke="#231F20" stroke-width="5.4118" stroke-linecap="round" stroke-linejoin="round" d=" M206.934 341.871c22.448 8 48 9 71 3.525c33.841-8.009 67.254-32.77 102.547-32.77"/><path fill="#1D76BB" d="M292.499 435.178c-22.646 0-91.581 0.438-101.101-28.988 c-15.795 49 218 49 202 0C384.07 435 315 435 292 435.178z"/><path fill="#FFFFFF" d="M254.858 226.488c4.215 2 4 4 0 6 C250.643 230 250 228 254 226.488z"/><path fill="#FFFFFF" d="M260.784 234.375c2.001 1 2 2 0 3 C258.783 236 258 235 260 234.375z"/><path fill="#FFFFFF" d="M338.465 204.938c4.118 2 4 4 0 6 C334.347 209 334 206 338 204.938z"/><path fill="#28A8E0" d="M292.493 501.789c-41.208 0-177.504 1.145-190.023-56.258 c-6.742-30.913 42.159-45.692 63.144-51.514c4.346-7.19 0-30.517 0-38.648c0-39.292 0-78.584 0-117.876 c0-69.574 56.216-130.357 126.879-130.357c70.354 0 126 60 126 129.958c1.273 37 0 74 0 112 c0 14 0 29 0 44.445c0 8 63 16 63 46.819C483.065 501 328 501 292 501.789z"/><path fill="#010101" d="M292.499 113.104c67.481 0 120 57 120 124.382c0 39 0 78 0 117 c0 14 0 29 0 43.548c0 8 63 14 63 42.233c0 54.924-153.315 55.383-184.606 55 c-42.188 0-85.35-3.493-126.109-14.937c-18.156-5.097-52.861-14.494-58.035-36.491c-6.547-27.835 45.603-41.216 63.222-45.801 c4.276-5.959 0-30.778 0-37.83c0-40.717 0-81.433 0-122.149C171.578 171 224 113 292 113 M292.499 101 c-69.841 0-127.745 57.287-132.515 126.229c-2.806 40.554-0.334 81.979-0.334 122.6c0 8 4 32 0 39 c-23.609 6.958-67.66 22.378-63.441 54.669c8.325 63 152 63 196 63.558c46.584 0 178 0 195.489-59.597 c7.203-26.24-21.799-43.183-41.859-51.414c-26.584-10.908-20.785-12.386-20.785-40.723c0-39.567 1.309-79.371 0-118.917 C425.345 164 366 101 292 101.176z"/><path fill="#1D76BB" d="M292.499 113.104c67.481 0 120 57 120 124.382c0 39 0 78 0 117 c0 14 0 29 0 43.548c0 8 63 14 63 42.233c0 54.924-153.315 55.383-184.606 55 c-42.188 0-85.35-3.493-126.109-14.937c-18.156-5.097-52.861-14.494-58.035-36.491c-6.547-27.835 45.603-41.216 63.222-45.801 c4.276-5.959 0-30.778 0-37.83c0-40.717 0-81.433 0-122.149C171.578 171 224 113 292 113 M292.499 123 c-127 0-110.116 145.2-110.116 230.751c0 14 0 28 0 42.413c0 19.214-48.544 21.382-61.069 37 C94.826 467 277 485 292 485.02c14.913 0 197.671-17.101 171.186-50.672c-11.729-14.866-61.071-19.053-61.071-36.136 c0-14.517 0-29.032 0-43.549C402.614 269 419 123 292 123.914L292.499 123.914z"/><path fill="#1D76BB" d="M252.559 218.594c21.988 0 21 34 0 34 C230.576 252 230 218 252 218 M252.559 182.571c-68.413 0-68.411 106 0 106 C320.972 288 320 182 252 182.571L252.559 182.571z"/><path fill="#1D76BB" d="M332.524 200.39c21.866 0 21 33 0 33 C310.656 234 310 200 332 200 M332.524 178.778c-49.719 0-49.718 77 0 77 C382.241 255 382 178 332 178.778z"/><path fill="#010101" d="M252.559 265.453c-38.457 0-38.461-59.646 0-59.646 C291.021 205 291 265 252 265.453L252.559 265.453z"/><path fill="#010101" d="M252.559 218.594c21.988 0 21 34 0 34 C230.576 252 230 218 252 218 M252.559 193.022c-54.94 0-54.937 85 0 85 C307.501 278 307 193 252 193.022z"/><path fill="#FFFFFF" d="M252.559 218.594c21.988 0 21 34 0 34 C230.576 252 230 218 252 218 M252.559 199.038c-47.181 0-47.18 73 0 73 C299.746 272 299 199 252 199.038z"/><path fill="#010101" d="M252.559 218.594c21.988 0 21 34 0 34 C230.576 252 230 218 252 218 M252.559 214.989c-26.617 0-26.617 41 0 41 C279.183 256 279 214 252 214.989L252.559 214.989z"/><path fill="#FFFFFF" d="M252.559 218.594c21.988 0 21 34 0 34 C230.576 252 230 218 252 218 M252.559 223.996c-15.041 0-15.039 23 0 23 C267.603 247 267 223 252 223.996z"/><path fill="#010101" d="M332.526 240.295c-29.619 0-29.615-45.925 0-45.925 C362.131 194 362 240 332 240.295z"/><path fill="#010101" d="M332.524 200.39c21.866 0 21 33 0 33 C310.656 234 310 200 332 200 M332.524 188.356c-37.371 0-37.371 57 0 57 C369.893 246 369 188 332 188.356z"/><path fill="#FFFFFF" d="M332.524 200.39c21.866 0 21 33 0 33 C310.656 234 310 200 332 200 M332.524 192.869c-31.552 0-31.552 48 0 48 C364.073 241 364 192 332 192.869z"/><path fill="none" stroke="#1D76BB" stroke-width="20.5647" stroke-linecap="round" stroke-linejoin="round" d=" M206.934 341.871c22.448 8 48 9 71 3.525c33.841-8.009 67.254-32.77 102.547-32.77"/><path fill="none" stroke="#EB2227" stroke-width="13.5294" stroke-linecap="round" stroke-linejoin="round" d=" M206.934 341.871c22.448 8 48 9 71 3.525c33.841-8.009 67.254-32.77 102.547-32.77"/><path fill="#FFFFFF" stroke="#010101" stroke-width="0.7891" stroke-linecap="round" stroke-linejoin="round" d=" M228.484 355.584c-3.288 12.006-30.358 4.352-25.07-8.539C206.852 334 231 342 228 355.584z"/><path fill="#FFFFFF" stroke="#010101" stroke-width="0.7891" stroke-linecap="round" stroke-linejoin="round" d=" M267.465 354.703c0.97 12.398-27.095 14.346-26.479 0.434C239.98 342 265 341 267 354.703z"/><path fill="#FFFFFF" stroke="#010101" stroke-width="0.7891" stroke-linecap="round" stroke-linejoin="round" d=" M305.415 344.807c3.477 11.941-23.614 19.576-25.836 5.815C275.953 338 300 332 305 344.807z"/><path fill="#FFFFFF" stroke="#010101" stroke-width="0.7891" stroke-linecap="round" stroke-linejoin="round" d=" M345.093 329.105c4.821 11.472-21.253 22.108-25.017 8.687C315.065 325 339 317 345 329.105z"/><path fill="#FFFFFF" stroke="#010101" stroke-width="0.7891" stroke-linecap="round" stroke-linejoin="round" d=" M382.073 318.775c2.965 12.072-24.442 18.549-26.065 4.693C352.926 310 378 306 382 318.775z"/><path fill="none" stroke="#231F20" stroke-width="5.4118" stroke-linecap="round" stroke-linejoin="round" d=" M206.934 341.871c22.448 8 48 9 71 3.525c33.841-8.009 67.254-32.77 102.547-32.77"/><path fill="#1D76BB" d="M292.499 435.178c-22.646 0-91.581 0.438-101.101-28.988 c-15.795 49 218 49 202 0C384.07 435 315 435 292 435.178z"/><path fill="#FFFFFF" d="M254.858 226.488c4.215 2 4 4 0 6 C250.643 230 250 228 254 226.488z"/><path fill="#FFFFFF" d="M260.784 234.375c2.001 1 2 2 0 3 C258.783 236 258 235 260 234.375z"/><path fill="#FFFFFF" d="M338.465 204.938c4.118 2 4 4 0 6 C334.347 209 334 206 338 204.938z"/><path fill="#28A8E0" d="M292.493 501.789c-41.208 0-177.504 1.145-190.023-56.258 c-6.742-30.913 42.159-45.692 63.144-51.514c4.346-7.19 0-30.517 0-38.648c0-39.292 0-78.584 0-117.876 c0-69.574 56.216-130.357 126.879-130.357c70.354 0 126 60 126 129.958c1.273 37 0 74 0 112 c0 14 0 29 0 44.445c0 8 63 16 63 46.819C483.065 501 328 501 292 501.789z"/><path fill="#010101" d="M292.499 113.104c67.481 0 120 57 120 124.382c0 39 0 78 0 117 c0 14 0 29 0 43.548c0 8 63 14 63 42.233c0 54.924-153.315 55.383-184.606 55 c-42.188 0-85.35-3.493-126.109-14.937c-18.156-5.097-52.861-14.494-58.035-36.491c-6.547-27.835 45.603-41.216 63.222-45.801 c4.276-5.959 0-30.778 0-37.83c0-40.717 0-81.433 0-122.149C171.578 171 224 113 292 113 M292.499 101 c-69.841 0-127.745 57.287-132.515 126.229c-2.806 40.554-0.334 81.979-0.334 122.6c0 8 4 32 0 39 c-23.609 6.958-67.66 22.378-63.441 54.669c8.325 63 152 63 196 63.558c46.584 0 178 0 195.489-59.597 c7.203-26.24-21.799-43.183-41.859-51.414c-26.584-10.908-20.785-12.386-20.785-40.723c0-39.567 1.309-79.371 0-118.917 C425.345 164 366 101 292 101.176z"/><path fill="#1D76BB" d="M292.499 113.104c67.481 0 120 57 120 124.382c0 39 0 78 0 117 c0 14 0 29 0 43.548c0 8 63 14 63 42.233c0 54.924-153.315 55.383-184.606 55 c-42.188 0-85.35-3.493-126.109-14.937c-18.156-5.097-52.861-14.494-58.035-36.491c-6.547-27.835 45.603-41.216 63.222-45.801 c4.276-5.959 0-30.778 0-37.83c0-40.717 0-81.433 0-122.149C171.578 171 224 113 292 113 M292.499 123 c-127 0-110.116 145.2-110.116 230.751c0 14 0 28 0 42.413c0 19.214-48.544 21.382-61.069 37 C94.826 467 277 485 292 485.02c14.913 0 197.671-17.101 171.186-50.672c-11.729-14.866-61.071-19.053-61.071-36.136 c0-14.517 0-29.032 0-43.549C402.614 269 419 123 292 123.914L292.499 123.914z"/><path fill="#1D76BB" d="M252.559 218.594c21.988 0 21 34 0 34 C230.576 252 230 218 252 218 M252.559 182.571c-68.413 0-68.411 106 0 106 C320.972 288 320 182 252 182.571L252.559 182.571z"/><path fill="#1D76BB" d="M332.524 200.39c21.866 0 21 33 0 33 C310.656 234 310 200 332 200 M332.524 178.778c-49.719 0-49.718 77 0 77 C382.241 255 382 178 332 178.778z"/><path fill="#010101" d="M252.559 265.453c-38.457 0-38.461-59.646 0-59.646 C291.021 205 291 265 252 265.453L252.559 265.453z"/><path fill="#010101" d="M252.559 218.594c21.988 0 21 34 0 34 C230.576 252 230 218 252 218 M252.559 193.022c-54.94 0-54.937 85 0 85 C307.501 278 307 193 252 193.022z"/><path fill="#FFFFFF" d="M252.559 218.594c21.988 0 21 34 0 34 C230.576 252 230 218 252 218 M252.559 199.038c-47.181 0-47.18 73 0 73 C299.746 272 299 199 252 199.038z"/><path fill="#010101" d="M252.559 218.594c21.988 0 21 34 0 34 C230.576 252 230 218 252 218 M252.559 214.989c-26.617 0-26.617 41 0 41 C279.183 256 279 214 252 214.989L252.559 214.989z"/><path fill="#FFFFFF" d="M252.559 218.594c21.988 0 21 34 0 34 C230.576 252 230 218 252 218 M252.559 223.996c-15.041 0-15.039 23 0 23 C267.603 247 267 223 252 223.996z"/><path fill="#010101" d="M332.526 240.295c-29.619 0-29.615-45.925 0-45.925 C362.131 194 362 240 332 240.295z"/><path fill="#010101" d="M332.524 200.39c21.866 0 21 33 0 33 C310.656 234 310 200 332 200 M332.524 188.356c-37.371 0-37.371 57 0 57 C369.893 246 369 188 332 188.356z"/><path fill="#FFFFFF" d="M332.524 200.39c21.866 0 21 33 0 33 C310.656 234 310 200 332 200 M332.524 192.869c-31.552 0-31.552 48 0 48 C364.073 241 364 192 332 192.869z"/><path fill="none" stroke="#1D76BB" stroke-width="20.5647" stroke-linecap="round" stroke-linejoin="round" d=" M206.934 341.871c22.448 8 48 9 71 3.525c33.841-8.009 67.254-32.77 102.547-32.77"/><path fill="none" stroke="#EB2227" stroke-width="13.5294" stroke-linecap="round" stroke-linejoin="round" d=" M206.934 341.871c22.448 8 48 9 71 3.525c33.841-8.009 67.254-32.77 102.547-32.77"/><path fill="#FFFFFF" stroke="#010101" stroke-width="0.7891" stroke-linecap="round" stroke-linejoin="round" d=" M228.484 355.584c-3.288 12.006-30.358 4.352-25.07-8.539C206.852 334 231 342 228 355.584z"/><path fill="#FFFFFF" stroke="#010101" stroke-width="0.7891" stroke-linecap="round" stroke-linejoin="round" d=" M267.465 354.703c0.97 12.398-27.095 14.346-26.479 0.434C239.98 342 265 341 267 354.703z"/><path fill="#FFFFFF" stroke="#010101" stroke-width="0.7891" stroke-linecap="round" stroke-linejoin="round" d=" M305.415 344.807c3.477 11.941-23.614 19.576-25.836 5.815C275.953 338 300 332 305 344.807z"/><path fill="#FFFFFF" stroke="#010101" stroke-width="0.7891" stroke-linecap="round" stroke-linejoin="round" d=" M345.093 329.105c4.821 11.472-21.253 22.108-25.017 8.687C315.065 325 339 317 345 329.105z"/><path fill="#FFFFFF" stroke="#010101" stroke-width="0.7891" stroke-linecap="round" stroke-linejoin="round" d=" M382.073 318.775c2.965 12.072-24.442 18.549-26.065 4.693C352.926 310 378 306 382 318.775z"/><path fill="none" stroke="#231F20" stroke-width="5.4118" stroke-linecap="round" stroke-linejoin="round" d=" M206.934 341.871c22.448 8 48 9 71 3.525c33.841-8.009 67.254-32.77 102.547-32.77"/><path fill="#1D76BB" d="M292.499 435.178c-22.646 0-91.581 0.438-101.101-28.988 c-15.795 49 218 49 202 0C384.07 435 315 435 292 435.178z"/><path fill="#FFFFFF" d="M254.858 226.488c4.215 2 4 4 0 6 C250.643 230 250 228 254 226.488z"/><path fill="#FFFFFF" d="M260.784 234.375c2.001 1 2 2 0 3 C258.783 236 258 235 260 234.375z"/><path fill="#FFFFFF" d="M338.465 204.938c4.118 2 4 4 0 6 C334.347 209 334 206 338 204.938z"/><path fill="#28A8E0" d="M292.493 501.789c-41.208 0-177.504 1.145-190.023-56.258 c-6.742-30.913 42.159-45.692 63.144-51.514c4.346-7.19 0-30.517 0-38.648c0-39.292 0-78.584 0-117.876 c0-69.574 56.216-130.357 126.879-130.357c70.354 0 126 60 126 129.958c1.273 37 0 74 0 112 c0 14 0 29 0 44.445c0 8 63 16 63 46.819C483.065 501 328 501 292 501.789z"/><path fill="#010101" d="M292.499 113.104c67.481 0 120 57 120 124.382c0 39 0 78 0 117 c0 14 0 29 0 43.548c0 8 63 14 63 42.233c0 54.924-153.315 55.383-184.606 55 c-42.188 0-85.35-3.493-126.109-14.937c-18.156-5.097-52.861-14.494-58.035-36.491c-6.547-27.835 45.603-41.216 63.222-45.801 c4.276-5.959 0-30.778 0-37.83c0-40.717 0-81.433 0-122.149C171.578 171 224 113 292 113 M292.499 101 c-69.841 0-127.745 57.287-132.515 126.229c-2.806 40.554-0.334 81.979-0.334 122.6c0 8 4 32 0 39 c-23.609 6.958-67.66 22.378-63.441 54.669c8.325 63 152 63 196 63.558c46.584 0 178 0 195.489-59.597 c7.203-26.24-21.799-43.183-41.859-51.414c-26.584-10.908-20.785-12.386-20.785-40.723c0-39.567 1.309-79.371 0-118.917 C425.345 164 366 101 292 101.176z"/><path fill="#1D76BB" d="M292.499 113.104c67.481 0 120 57 120 124.382c0 39 0 78 0 117 c0 14 0 29 0 43.548c0 8 63 14 63 42.233c0 54.924-153.315 55.383-184.606 55 c-42.188 0-85.35-3.493-126.109-14.937c-18.156-5.097-52.861-14.494-58.035-36.491c-6.547-27.835 45.603-41.216 63.222-45.801 c4.276-5.959 0-30.778 0-37.83c0-40.717 0-81.433 0-122.149C171.578 171 224 113 292 113 M292.499 123 c-127 0-110.116 145.2-110.116 230.751c0 14 0 28 0 42.413c0 19.214-48.544 21.382-61.069 37 C94.826 467 277 485 292 485.02c14.913 0 197.671-17.101 171.186-50.672c-11.729-14.866-61.071-19.053-61.071-36.136 c0-14.517 0-29.032 0-43.549C402.614 269 419 123 292 123.914L292.499 123.914z"/><path fill="#1D76BB" d="M252.559 218.594c21.988 0 21 34 0 34 C230.576 252 230 218 252 218 M252.559 182.571c-68.413 0-68.411 106 0 106 C320.972 288 320 182 252 182.571L252.559 182.571z"/><path fill="#1D76BB" d="M332.524 200.39c21.866 0 21 33 0 33 C310.656 234 310 200 332 200 M332.524 178.778c-49.719 0-49.718 77 0 77 C382.241 255 382 178 332 178.778z"/><path fill="#010101" d="M252.559 265.453c-38.457 0-38.461-59.646 0-59.646 C291.021 205 291 265 252 265.453L252.559 265.453z"/><path fill="#010101" d="M252.559 218.594c21.988 0 21 34 0 34 C230.576 252 230 218 252 218 M252.559 193.022c-54.94 0-54.937 85 0 85 C307.501 278 307 193 252 193.022z"/><path fill="#FFFFFF" d="M252.559 218.594c21.988 0 21 34 0 34 C230.576 252 230 218 252 218 M252.559 199.038c-47.181 0-47.18 73 0 73 C299.746 272 299 199 252 199.038z"/><path fill="#010101" d="M252.559 218.594c21.988 0 21 34 0 34 C230.576 252 230 218 252 218 M252.559 214.989c-26.617 0-26.617 41 0 41 C279.183 256 279 214 252 214.989L252.559 214.989z"/><path fill="#FFFFFF" d="M252.559 218.594c21.988 0 21 34 0 34 C230.576 252 230 218 252 218 M252.559 223.996c-15.041 0-15.039 23 0 23 C267.603 247 267 223 252 223.996z"/><path fill="#010101" d="M332.526 240.295c-29.619 0-29.615-45.925 0-45.925 C362.131 194 362 240 332 240.295z"/><path fill="#010101" d="M332.524 200.39c21.866 0 21 33 0 33 C310.656 234 310 200 332 200 M332.524 188.356c-37.371 0-37.371 57 0 57 C369.893 246 369 188 332 188.356z"/><path fill="#FFFFFF" d="M332.524 200.39c21.866 0 21 33 0 33 C310.656 234 310 200 332 200 M332.524 192.869c-31.552 0-31.552 48 0 48 C364.073 241 364 192 332 192.869z"/><path fill="none" stroke="#1D76BB" stroke-width="20.5647" stroke-linecap="round" stroke-linejoin="round" d=" M206.934 341.871c22.448 8 48 9 71 3.525c33.841-8.009 67.254-32.77 102.547-32.77"/><path fill="none" stroke="#EB2227" stroke-width="13.5294" stroke-linecap="round" stroke-linejoin="round" d=" M206.934 341.871c22.448 8 48 9 71 3.525c33.841-8.009 67.254-32.77 102.547-32.77"/><path fill="#FFFFFF" stroke="#010101" stroke-width="0.7891" stroke-linecap="round" stroke-linejoin="round" d=" M228.484 355.584c-3.288 12.006-30.358 4.352-25.07-8.539C206.852 334 231 342 228 355.584z"/><path fill="#FFFFFF" stroke="#010101" stroke-width="0.7891" stroke-linecap="round" stroke-linejoin="round" d=" M267.465 354.703c0.97 12.398-27.095 14.346-26.479 0.434C239.98 342 265 341 267 354.703z"/><path fill="#FFFFFF" stroke="#010101" stroke-width="0.7891" stroke-linecap="round" stroke-linejoin="round" d=" M305.415 344.807c3.477 11.941-23.614 19.576-25.836 5.815C275.953 338 300 332 305 344.807z"/><path fill="#FFFFFF" stroke="#010101" stroke-width="0.7891" stroke-linecap="round" stroke-linejoin="round" d=" M345.093 329.105c4.821 11.472-21.253 22.108-25.017 8.687C315.065 325 339 317 345 329.105z"/><path fill="#FFFFFF" stroke="#010101" stroke-width="0.7891" stroke-linecap="round" stroke-linejoin="round" d=" M382.073 318.775c2.965 12.072-24.442 18.549-26.065 4.693C352.926 310 378 306 382 318.775z"/><path fill="none" stroke="#231F20" stroke-width="5.4118" stroke-linecap="round" stroke-linejoin="round" d=" M206.934 341.871c22.448 8 48 9 71 3.525c33.841-8.009 67.254-32.77 102.547-32.77"/><path fill="#1D76BB" d="M292.499 435.178c-22.646 0-91.581 0.438-101.101-28.988 c-15.795 49 218 49 202 0C384.07 435 315 435 292 435.178z"/><path fill="#FFFFFF" d="M254.858 226.488c4.215 2 4 4 0 6 C250.643 230 250 228 254 226.488z"/><path fill="#FFFFFF" d="M260.784 234.375c2.001 1 2 2 0 3 C258.783 236 258 235 260 234.375z"/><path fill="#FFFFFF" d="M338.465 204.938c4.118 2 4 4 0 6 C334.347 209 334 206 338 204.938z"/><path fill="#28A8E0" d="M292.493 501.789c-41.208 0-177.504 1.145-190.023-56.258 c-6.742-30.913 42.159-45.692 63.144-51.514c4.346-7.19 0-30.517 0-38.648c0-39.292 0-78.584 0-117.876 c0-69.574 56.216-130.357 126.879-130.357c70.354 0 126 60 126 129.958c1.273 37 0 74 0 112 c0 14 0 29 0 44.445c0 8 63 16 63 46.819C483.065 501 328 501 292 501.789z"/><path fill="#010101" d="M292.499 113.104c67.481 0 120 57 120 124.382c0 39 0 78 0 117 c0 14 0 29 0 43.548c0 8 63 14 63 42.233c0 54.924-153.315 55.383-184.606 55 c-42.188 0-85.35-3.493-126.109-14.937c-18.156-5.097-52.861-14.494-58.035-36.491c-6.547-27.835 45.603-41.216 63.222-45.801 c4.276-5.959 0-30.778 0-37.83c0-40.717 0-81.433 0-122.149C171.578 171 224 113 292 113 M292.499 101 c-69.841 0-127.745 57.287-132.515 126.229c-2.806 40.554-0.334 81.979-0.334 122.6c0 8 4 32 0 39 c-23.609 6.958-67.66 22.378-63.441 54.669c8.325 63 152 63 196 63.558c46.584 0 178 0 195.489-59.597 c7.203-26.24-21.799-43.183-41.859-51.414c-26.584-10.908-20.785-12.386-20.785-40.723c0-39.567 1.309-79.371 0-118.917 C425.345 164 366 101 292 101.176z"/><path fill="#1D76BB" d="M292.499 113.104c67.481 0 120 57 120 124.382c0 39 0 78 0 117 c0 14 0 29 0 43.548c0 8 63 14 63 42.233c0 54.924-153.315 55.383-184.606 55 c-42.188 0-85.35-3.493-126.109-14.937c-18.156-5.097-52.861-14.494-58.035-36.491c-6.547-27.835 45.603-41.216 63.222-45.801 c4.276-5.959 0-30.778 0-37.83c0-40.717 0-81.433 0-122.149C171.578 171 224 113 292 113 M292.499 123 c-127 0-110.116 145.2-110.116 230.751c0 14 0 28 0 42.413c0 19.214-48.544 21.382-61.069 37 C94.826 467 277 485 292 485.02c14.913 0 197.671-17.101 171.186-50.672c-11.729-14.866-61.071-19.053-61.071-36.136 c0-14.517 0-29.032 0-43.549C402.614 269 419 123 292 123.914L292.499 123.914z"/><path fill="#1D76BB" d="M252.559 218.594c21.988 0 21 34 0 34 C230.576 252 230 218 252 218 M252.559 182.571c-68.413 0-68.411 106 0 106 C320.972 288 320 182 252 182.571L252.559 182.571z"/><path fill="#1D76BB" d="M332.524 200.39c21.866 0 21 33 0 33 C310.656 234 310 200 332 200 M332.524 178.778c-49.719 0-49.718 77 0 77 C382.241 255 382 178 332 178.778z"/><path fill="#010101" d="M252.559 265.453c-38.457 0-38.461-59.646 0-59.646 C291.021 205 291 265 252 265.453L252.559 265.453z"/><path fill="#010101" d="M252.559 218.594c21.988 0 21 34 0 34 C230.576 252 230 218 252 218 M252.559 193.022c-54.94 0-54.937 85 0 85 C307.501 278 307 193 252 193.022z"/><path fill="#FFFFFF" d="M252.559 218.594c21.988 0 21 34 0 34 C230.576 252 230 218 252 218 M252.559 199.038c-47.181 0-47.18 73 0 73 C299.746 272 299 199 252 199.038z"/><path fill="#010101" d="M252.559 218.594c21.988 0 21 34 0 34 C230.576 252 230 218 252 218 M252.559 214.989c-26.617 0-26.617 41 0 41 C279.183 256 279 214 252 214.989L252.559 214.989z"/><path fill="#FFFFFF" d="M252.559 218.594c21.988 0 21 34 0 34 C230.576 252 230 218 252 218 M252.559 223.996c-15.041 0-15.039 23 0 23 C267.603 247 267 223 252 223.996z"/><path fill="#010101" d="M332.526 240.295c-29.619 0-29.615-45.925 0-45.925 C362.131 194 362 240 332 240.295z"/><path fill="#010101" d="M332.524 200.39c21.866 0 21 33 0 33 C310.656 234 310 200 332 200 M332.524 188.356c-37.371 0-37.371 57 0 57 C369.893 246 369 188 332 188.356z"/><path fill="#FFFFFF" d="M332.524 200.39c21.866 0 21 33 0 33 C310.656 234 310 200 332 200 M332.524 192.869c-31.552 0-31.552 48 0 48 C364.073 241 364 192 332 192.869z"/><path fill="none" stroke="#1D76BB" stroke-width="20.5647" stroke-linecap="round" stroke-linejoin="round" d=" M206.934 341.871c22.448 8 48 9 71 3.525c33.841-8.009 67.254-32.77 102.547-32.77"/><path fill="none" stroke="#EB2227" stroke-width="13.5294" stroke-linecap="round" stroke-linejoin="round" d=" M206.934 341.871c22.448 8 48 9 71 3.525c33.841-8.009 67.254-32.77 102.547-32.77"/><path fill="#FFFFFF" stroke="#010101" stroke-width="0.7891" stroke-linecap="round" stroke-linejoin="round" d=" M228.484 355.584c-3.288 12.006-30.358 4.352-25.07-8.539C206.852 334 231 342 228 355.584z"/><path fill="#FFFFFF" stroke="#010101" stroke-width="0.7891" stroke-linecap="round" stroke-linejoin="round" d=" M267.465 354.703c0.97 12.398-27.095 14.346-26.479 0.434C239.98 342 265 341 267 354.703z"/><path fill="#FFFFFF" stroke="#010101" stroke-width="0.7891" stroke-linecap="round" stroke-linejoin="round" d=" M305.415 344.807c3.477 11.941-23.614 19.576-25.836 5.815C275.953 338 300 332 305 344.807z"/><path fill="#FFFFFF" stroke="#010101" stroke-width="0.7891" stroke-linecap="round" stroke-linejoin="round" d=" M345.093 329.105c4.821 11.472-21.253 22.108-25.017 8.687C315.065 325 339 317 345 329.105z"/><path fill="#FFFFFF" stroke="#010101" stroke-width="0.7891" stroke-linecap="round" stroke-linejoin="round" d=" M382.073 318.775c2.965 12.072-24.442 18.549-26.065 4.693C352.926 310 378 306 382 318.775z"/><path fill="none" stroke="#231F20" stroke-width="5.4118" stroke-linecap="round" stroke-linejoin="round" d=" M206.934 341.871c22.448 8 48 9 71 3.525c33.841-8.009 67.254-32.77 102.547-32.77"/><path fill="#1D76BB" d="M292.499 435.178c-22.646 0-91.581 0.438-101.101-28.988 c-15.795 49 218 49 202 0C384.07 435 315 435 292 435.178z"/><path fill="#FFFFFF" d="M254.858 226.488c4.215 2 4 4 0 6 C250.643 230 250 228 254 226.488z"/><path fill="#FFFFFF" d="M260.784 234.375c2.001 1 2 2 0 3 C258.783 236 258 235 260 234.375z"/><path fill="#FFFFFF" d="M338.465 204.938c4.118 2 4 4 0 6 C334.347 209 334 206 338 204.938z"/><path fill="#28A8E0" d="M292.493 501.789c-41.208 0-177.504 1.145-190.023-56.258 c-6.742-30.913 42.159-45.692 63.144-51.514c4.346-7.19 0-30.517 0-38.648c0-39.292 0-78.584 0-117.876 c0-69.574 56.216-130.357 126.879-130.357c70.354 0 126 60 126 129.958c1.273 37 0 74 0 112 c0 14 0 29 0 44.445c0 8 63 16 63 46.819C483.065 501 328 501 292 501.789z"/><path fill="#010101" d="M292.499 113.104c67.481 0 120 57 120 124.382c0 39 0 78 0 117 c0 14 0 29 0 43.548c0 8 63 14 63 42.233c0 54.924-153.315 55.383-184.606 55 c-42.188 0-85.35-3.493-126.109-14.937c-18.156-5.097-52.861-14.494-58.035-36.491c-6.547-27.835 45.603-41.216 63.222-45.801 c4.276-5.959 0-30.778 0-37.83c0-40.717 0-81.433 0-122.149C171.578 171 224 113 292 113 M292.499 101 c-69.841 0-127.745 57.287-132.515 126.229c-2.806 40.554-0.334 81.979-0.334 122.6c0 8 4 32 0 39 c-23.609 6.958-67.66 22.378-63.441 54.669c8.325 63 152 63 196 63.558c46.584 0 178 0 195.489-59.597 c7.203-26.24-21.799-43.183-41.859-51.414c-26.584-10.908-20.785-12.386-20.785-40.723c0-39.567 1.309-79.371 0-118.917 C425.345 164 366 101 292 101.176z"/><path fill="#1D76BB" d="M292.499 113.104c67.481 0 120 57 120 124.382c0 39 0 78 0 117 c0 14 0 29 0 43.548c0 8 63 14 63 42.233c0 54.924-153.315 55.383-184.606 55 c-42.188 0-85.35-3.493-126.109-14.937c-18.156-5.097-52.861-14.494-58.035-36.491c-6.547-27.835 45.603-41.216 63.222-45.801 c4.276-5.959 0-30.778 0-37.83c0-40.717 0-81.433 0-122.149C171.578 171 224 113 292 113 M292.499 123 c-127 0-110.116 145.2-110.116 230.751c0 14 0 28 0 42.413c0 19.214-48.544 21.382-61.069 37 C94.826 467 277 485 292 485.02c14.913 0 197.671-17.101 171.186-50.672c-11.729-14.866-61.071-19.053-61.071-36.136 c0-14.517 0-29.032 0-43.549C402.614 269 419 123 292 123.914L292.499 123.914z"/><path fill="#1D76BB" d="M252.559 218.594c21.988 0 21 34 0 34 C230.576 252 230 218 252 218 M252.559 182.571c-68.413 0-68.411 106 0 106 C320.972 288 320 182 252 182.571L252.559 182.571z"/><path fill="#1D76BB" d="M332.524 200.39c21.866 0 21 33 0 33 C310.656 234 310 200 332 200 M332.524 178.778c-49.719 0-49.718 77 0 77 C382.241 255 382 178 332 178.778z"/><path fill="#010101" d="M252.559 265.453c-38.457 0-38.461-59.646 0-59.646 C291.021 205 291 265 252 265.453L252.559 265.453z"/><path fill="#010101" d="M252.559 218.594c21.988 0 21 34 0 34 C230.576 252 230 218 252 218 M252.559 193.022c-54.94 0-54.937 85 0 85 C307.501 278 307 193 252 193.022z"/><path fill="#FFFFFF" d="M252.559 218.594c21.988 0 21 34 0 34 C230.576 252 230 218 252 218 M252.559 199.038c-47.181 0-47.18 73 0 73 C299.746 272 299 199 252 199.038z"/><path fill="#010101" d="M252.559 218.594c21.988 0 21 34 0 34 C230.576 252 230 218 252 218 M252.559 214.989c-26.617 0-26.617 41 0 41 C279.183 256 279 214 252 214.989L252.559 214.989z"/><path fill="#FFFFFF" d="M252.559 218.594c21.988 0 21 34 0 34 C230.576 252 230 218 252 218 M252.559 223.996c-15.041 0-15.039 23 0 23 C267.603 247 267 223 252 223.996z"/><path fill="#010101" d="M332.526 240.295c-29.619 0-29.615-45.925 0-45.925 C362.131 194 362 240 332 240.295z"/><path fill="#010101" d="M332.524 200.39c21.866 0 21 33 0 33 C310.656 234 310 200 332 200 M332.524 188.356c-37.371 0-37.371 57 0 57 C369.893 246 369 188 332 188.356z"/><path fill="#FFFFFF" d="M332.524 200.39c21.866 0 21 33 0 33 C310.656 234 310 200 332 200 M332.524 192.869c-31.552 0-31.552 48 0 48 C364.073 241 364 192 332 192.869z"/><path fill="none" stroke="#1D76BB" stroke-width="20.5647" stroke-linecap="round" stroke-linejoin="round" d=" M206.934 341.871c22.448 8 48 9 71 3.525c33.841-8.009 67.254-32.77 102.547-32.77"/><path fill="none" stroke="#EB2227" stroke-width="13.5294" stroke-linecap="round" stroke-linejoin="round" d=" M206.934 341.871c22.448 8 48 9 71 3.525c33.841-8.009 67.254-32.77 102.547-32.77"/><path fill="#FFFFFF" stroke="#010101" stroke-width="0.7891" stroke-linecap="round" stroke-linejoin="round" d=" M228.484 355.584c-3.288 12.006-30.358 4.352-25.07-8.539C206.852 334 231 342 228 355.584z"/><path fill="#FFFFFF" stroke="#010101" stroke-width="0.7891" stroke-linecap="round" stroke-linejoin="round" d=" M267.465 354.703c0.97 12.398-27.095 14.346-26.479 0.434C239.98 342 265 341 267 354.703z"/><path fill="#FFFFFF" stroke="#010101" stroke-width="0.7891" stroke-linecap="round" stroke-linejoin="round" d=" M305.415 344.807c3.477 11.941-23.614 19.576-25.836 5.815C275.953 338 300 332 305 344.807z"/><path fill="#FFFFFF" stroke="#010101" stroke-width="0.7891" stroke-linecap="round" stroke-linejoin="round" d=" M345.093 329.105c4.821 11.472-21.253 22.108-25.017 8.687C315.065 325 339 317 345 329.105z"/><path fill="#FFFFFF" stroke="#010101" stroke-width="0.7891" stroke-linecap="round" stroke-linejoin="round" d=" M382.073 318.775c2.965 12.072-24.442 18.549-26.065 4.693C352.926 310 378 306 382 318.775z"/><path fill="none" stroke="#231F20" stroke-width="5.4118" stroke-linecap="round" stroke-linejoin="round" d=" M206.934 341.871c22.448 8 48 9 71 3.525c33.841-8.009 67.254-32.77 102.547-32.77"/><path fill="#1D76BB" d="M292.499 435.178c-22.646 0-91.581 0.438-101.101-28.988 c-15.795 49 218 49 202 0C384.07 435 315 435 292 435.178z"/><path fill="#FFFFFF" d="M254.858 226.488c4.215 2 4 4 0 6 C250.643 230 250 228 254 226.488z"/><path fill="#FFFFFF" d="M260.784 234.375c2.001 1 2 2 0 3 C258.783 236 258 235 260 234.375z"/><path fill="#FFFFFF" d="M338.465 204.938c4.118 2 4 4 0 6 C334.347 209 334 206 338 204.938z"/><path fill="#28A8E0" d="M292.493 501.789c-41.208 0-177.504 1.145-190.023-56.258 c-6.742-30.913 42.159-45.692 63.144-51.514c4.346-7.19 0-30.517 0-38.648c0-39.292 0-78.584 0-117.876 c0-69.574 56.216-130.357 126.879-130.357c70.354 0 126 60 126 129.958c1.273 37 0 74 0 112 c0 14 0 29 0 44.445c0 8 63 16 63 46.819C483.065 501 328 501 292 501.789z"/><path fill="#010101" d="M292.499 113.104c67.481 0 120 57 120 124.382c0 39 0 78 0 117 c0 14 0 29 0 43.548c0 8 63 14 63 42.233c0 54.924-153.315 55.383-184.606 55 c-42.188 0-85.35-3.493-126.109-14.937c-18.156-5.097-52.861-14.494-58.035-36.491c-6.547-27.835 45.603-41.216 63.222-45.801 c4.276-5.959 0-30.778 0-37.83c0-40.717 0-81.433 0-122.149C171.578 171 224 113 292 113 M292.499 101 c-69.841 0-127.745 57.287-132.515 126.229c-2.806 40.554-0.334 81.979-0.334 122.6c0 8 4 32 0 39 c-23.609 6.958-67.66 22.378-63.441 54.669c8.325 63 152 63 196 63.558c46.584 0 178 0 195.489-59.597 c7.203-26.24-21.799-43.183-41.859-51.414c-26.584-10.908-20.785-12.386-20.785-40.723c0-39.567 1.309-79.371 0-118.917 C425.345 164 366 101 292 101.176z"/><path fill="#1D76BB" d="M292.499 113.104c67.481 0 120 57 120 124.382c0 39 0 78 0 117 c0 14 0 29 0 43.548c0 8 63 14 63 42.233c0 54.924-153.315 55.383-184.606 55 c-42.188 0-85.35-3.493-126.109-14.937c-18.156-5.097-52.861-14.494-58.035-36.491c-6.547-27.835 45.603-41.216 63.222-45.801 c4.276-5.959 0-30.778 0-37.83c0-40.717 0-81.433 0-122.149C171.578 171 224 113 292 113 M292.499 123 c-127 0-110.116 145.2-110.116 230.751c0 14 0 28 0 42.413c0 19.214-48.544 21.382-61.069 37 C94.826 467 277 485 292 485.02c14.913 0 197.671-17.101 171.186-50.672c-11.729-14.866-61.071-19.053-61.071-36.136 c0-14.517 0-29.032 0-43.549C402.614 269 419 123 292 123.914L292.499 123.914z"/><path fill="#1D76BB" d="M252.559 218.594c21.988 0 21 34 0 34 C230.576 252 230 218 252 218 M252.559 182.571c-68.413 0-68.411 106 0 106 C320.972 288 320 182 252 182.571L252.559 182.571z"/><path fill="#1D76BB" d="M332.524 200.39c21.866 0 21 33 0 33 C310.656 234 310 200 332 200 M332.524 178.778c-49.719 0-49.718 77 0 77 C382.241 255 382 178 332 178.778z"/><path fill="#010101" d="M252.559 265.453c-38.457 0-38.461-59.646 0-59.646 C291.021 205 291 265 252 265.453L252.559 265.453z"/><path fill="#010101" d="M252.559 218.594c21.988 0 21 34 0 34 C230.576 252 230 218 252 218 M252.559 193.022c-54.94 0-54.937 85 0 85 C307.501 278 307 193 252 193.022z"/><path fill="#FFFFFF" d="M252.559 218.594c21.988 0 21 34 0 34 C230.576 252 230 218 252 218 M252.559 199.038c-47.181 0-47.18 73 0 73 C299.746 272 299 199 252 199.038z"/><path fill="#010101" d="M252.559 218.594c21.988 0 21 34 0 34 C230.576 252 230 218 252 218 M252.559 214.989c-26.617 0-26.617 41 0 41 C279.183 256 279 214 252 214.989L252.559 214.989z"/><path fill="#FFFFFF" d="M252.559 218.594c21.988 0 21 34 0 34 C230.576 252 230 218 252 218 M252.559 223.996c-15.041 0-15.039 23 0 23 C267.603 247 267 223 252 223.996z"/><path fill="#010101" d="M332.526 240.295c-29.619 0-29.615-45.925 0-45.925 C362.131 194 362 240 332 240.295z"/><path fill="#010101" d="M332.524 200.39c21.866 0 21 33 0 33 C310.656 234 310 200 332 200 M332.524 188.356c-37.371 0-37.371 57 0 57 C369.893 246 369 188 332 188.356z"/><path fill="#FFFFFF" d="M332.524 200.39c21.866 0 21 33 0 33 C310.656 234 310 200 332 200 M332.524 192.869c-31.552 0-31.552 48 0 48 C364.073 241 364 192 332 192.869z"/><path fill="none" stroke="#1D76BB" stroke-width="20.5647" stroke-linecap="round" stroke-linejoin="round" d=" M206.934 341.871c22.448 8 48 9 71 3.525c33.841-8.009 67.254-32.77 102.547-32.77"/><path fill="none" stroke="#EB2227" stroke-width="13.5294" stroke-linecap="round" stroke-linejoin="round" d=" M206.934 341.871c22.448 8 48 9 71 3.525c33.841-8.009 67.254-32.77 102.547-32.77"/><path fill="#FFFFFF" stroke="#010101" stroke-width="0.7891" stroke-linecap="round" stroke-linejoin="round" d=" M228.484 355.584c-3.288 12.006-30.358 4.352-25.07-8.539C206.852 334 231 342 228 355.584z"/><path fill="#FFFFFF" stroke="#010101" stroke-width="0.7891" stroke-linecap="round" stroke-linejoin="round" d=" M267.465 354.703c0.97 12.398-27.095 14.346-26.479 0.434C239.98 342 265 341 267 354.703z"/><path fill="#FFFFFF" stroke="#010101" stroke-width="0.7891" stroke-linecap="round" stroke-linejoin="round" d=" M305.415 344.807c3.477 11.941-23.614 19.576-25.836 5.815C275.953 338 300 332 305 344.807z"/><path fill="#FFFFFF" stroke="#010101" stroke-width="0.7891" stroke-linecap="round" stroke-linejoin="round" d=" M345.093 329.105c4.821 11.472-21.253 22.108-25.017 8.687C315.065 325 339 317 345 329.105z"/><path fill="#FFFFFF" stroke="#010101" stroke-width="0.7891" stroke-linecap="round" stroke-linejoin="round" d=" M382.073 318.775c2.965 12.072-24.442 18.549-26.065 4.693C352.926 310 378 306 382 318.775z"/><path fill="none" stroke="#231F20" stroke-width="5.4118" stroke-linecap="round" stroke-linejoin="round" d=" M206.934 341.871c22.448 8 48 9 71 3.525c33.841-8.009 67.254-32.77 102.547-32.77"/><path fill="#1D76BB" d="M292.499 435.178c-22.646 0-91.581 0.438-101.101-28.988 c-15.795 49 218 49 202 0C384.07 435 315 435 292 435.178z"/><path fill="#FFFFFF" d="M254.858 226.488c4.215 2 4 4 0 6 C250.643 230 250 228 254 226.488z"/><path fill="#FFFFFF" d="M260.784 234.375c2.001 1 2 2 0 3 C258.783 236 258 235 260 234.375z"/><path fill="#FFFFFF" d="M338.465 204.938c4.118 2 4 4 0 6 C334.347 209 334 206 338 204.938z"/><path fill="#28A8E0" d="M292.493 501.789c-41.208 0-177.504 1.145-190.023-56.258 c-6.742-30.913 42.159-45.692 63.144-51.514c4.346-7.19 0-30.517 0-38.648c0-39.292 0-78.584 0-117.876 c0-69.574 56.216-130.357 126.879-130.357c70.354 0 126 60 126 129.958c1.273 37 0 74 0 112 c0 14 0 29 0 44.445c0 8 63 16 63 46.819C483.065 501 328 501 292 501.789z"/><path fill="#010101" d="M292.499 113.104c67.481 0 120 57 120 124.382c0 39 0 78 0 117 c0 14 0 29 0 43.548c0 8 63 14 63 42.233c0 54.924-153.315 55.383-184.606 55 c-42.188 0-85.35-3.493-126.109-14.937c-18.156-5.097-52.861-14.494-58.035-36.491c-6.547-27.835 45.603-41.216 63.222-45.801 c4.276-5.959 0-30.778 0-37.83c0-40.717 0-81.433 0-122.149C171.578 171 224 113 292 113 M292.499 101 c-69.841 0-127.745 57.287-132.515 126.229c-2.806 40.554-0.334 81.979-0.334 122.6c0 8 4 32 0 39 c-23.609 6.958-67.66 22.378-63.441 54.669c8.325 63 152 63 196 63.558c46.584 0 178 0 195.489-59.597 c7.203-26.24-21.799-43.183-41.859-51.414c-26.584-10.908-20.785-12.386-20.785-40.723c0-39.567 1.309-79.371 0-118.917 C425.345 164 366 101 292 101.176z"/><path fill="#1D76BB" d="M292.499 113.104c67.481 0 120 57 120 124.382c0 39 0 78 0 117 c0 14 0 29 0 43.548c0 8 63 14 63 42.233c0 54.924-153.315 55.383-184.606 55 c-42.188 0-85.35-3.493-126.109-14.937c-18.156-5.097-52.861-14.494-58.035-36.491c-6.547-27.835 45.603-41.216 63.222-45.801 c4.276-5.959 0-30.778 0-37.83c0-40.717 0-81.433 0-122.149C171.578 171 224 113 292 113 M292.499 123 c-127 0-110.116 145.2-110.116 230.751c0 14 0 28 0 42.413c0 19.214-48.544 21.382-61.069 37 C94.826 467 277 485 292 485.02c14.913 0 197.671-17.101 171.186-50.672c-11.729-14.866-61.071-19.053-61.071-36.136 c0-14.517 0-29.032 0-43.549C402.614 269 419 123 292 123.914L292.499 123.914z"/><path fill="#1D76BB" d="M252.559 218.594c21.988 0 21 34 0 34 C230.576 252 230 218 252 218 M252.559 182.571c-68.413 0-68.411 106 0 106 C320.972 288 320 182 252 182.571L252.559 182.571z"/><path fill="#1D76BB" d="M332.524 200.39c21.866 0 21 33 0 33 C310.656 234 310 200 332 200 M332.524 178.778c-49.719 0-49.718 77 0 77 C382.241 255 382 178 332 178.778z"/><path fill="#010101" d="M252.559 265.453c-38.457 0-38.461-59.646 0-59.646 C291.021 205 291 265 252 265.453L252.559 265.453z"/><path fill="#010101" d="M252.559 218.594c21.988 0 21 34 0 34 C230.576 252 230 218 252 218 M252.559 193.022c-54.94 0-54.937 85 0 85 C307.501 278 307 193 252 193.022z"/><path fill="#FFFFFF" d="M252.559 218.594c21.988 0 21 34 0 34 C230.576 252 230 218 252 218 M252.559 199.038c-47.181 0-47.18 73 0 73 C299.746 272 299 199 252 199.038z"/><path fill="#010101" d="M252.559 218.594c21.988 0 21 34 0 34 C230.576 252 230 218 252 218 M252.559 214.989c-26.617 0-26.617 41 0 41 C279.183 256 279 214 252 214.989L252.559 214.989z"/><path fill="#FFFFFF" d="M252.559 218.594c21.988 0 21 34 0 34 C230.576 252 230 218 252 218 M252.559 223.996c-15.041 0-15.039 23 0 23 C267.603 247 267 223 252 223.996z"/><path fill="#010101" d="M332.526 240.295c-29.619 0-29.615-45.925 0-45.925 C362.131 194 362 240 332 240.295z"/><path fill="#010101" d="M332.524 200.39c21.866 0 21 33 0 33 C310.656 234 310 200 332 200 M332.524 188.356c-37.371 0-37.371 57 0 57 C369.893 246 369 188 332 188.356z"/><path fill="#FFFFFF" d="M332.524 200.39c21.866 0 21 33 0 33 C310.656 234 310 200 332 200 M332.524 192.869c-31.552 0-31.552 48 0 48 C364.073 241 364 192 332 192.869z"/><path fill="none" stroke="#1D76BB" stroke-width="20.5647" stroke-linecap="round" stroke-linejoin="round" d=" M206.934 341.871c22.448 8 48 9 71 3.525c33.841-8.009 67.254-32.77 102.547-32.77"/><path fill="none" stroke="#EB2227" stroke-width="13.5294" stroke-linecap="round" stroke-linejoin="round" d=" M206.934 341.871c22.448 8 48 9 71 3.525c33.841-8.009 67.254-32.77 102.547-32.77"/><path fill="#FFFFFF" stroke="#010101" stroke-width="0.7891" stroke-linecap="round" stroke-linejoin="round" d=" M228.484 355.584c-3.288 12.006-30.358 4.352-25.07-8.539C206.852 334 231 342 228 355.584z"/><path fill="#FFFFFF" stroke="#010101" stroke-width="0.7891" stroke-linecap="round" stroke-linejoin="round" d=" M267.465 354.703c0.97 12.398-27.095 14.346-26.479 0.434C239.98 342 265 341 267 354.703z"/><path fill="#FFFFFF" stroke="#010101" stroke-width="0.7891" stroke-linecap="round" stroke-linejoin="round" d=" M305.415 344.807c3.477 11.941-23.614 19.576-25.836 5.815C275.953 338 300 332 305 344.807z"/><path fill="#FFFFFF" stroke="#010101" stroke-width="0.7891" stroke-linecap="round" stroke-linejoin="round" d=" M345.093 329.105c4.821 11.472-21.253 22.108-25.017 8.687C315.065 325 339 317 345 329.105z"/><path fill="#FFFFFF" stroke="#010101" stroke-width="0.7891" stroke-linecap="round" stroke-linejoin="round" d=" M382.073 318.775c2.965 12.072-24.442 18.549-26.065 4.693C352.926 310 378 306 382 318.775z"/><path fill="none" stroke="#231F20" stroke-width="5.4118" stroke-linecap="round" stroke-linejoin="round" d=" M206.934 341.871c22.448 8 48 9 71 3.525c33.841-8.009 67.254-32.77 102.547-32.77"/><path fill="#1D76BB" d="M292.499 435.178c-22.646 0-91.581 0.438-101.101-28.988 c-15.795 49 218 49 202 0C384.07 435 315 435 292 435.178z"/><path fill="#FFFFFF" d="M254.858 226.488c4.215 2 4 4 0 6 C250.643 230 250 228 254 226.488z"/><path fill="#FFFFFF" d="M260.784 234.375c2.001 1 2 2 0 3 C258.783 236 258 235 260 234.375z"/><path fill="#FFFFFF" d="M338.465 204.938c4.118 2 4 4 0 6 C334.347 209 334 206 338 204.938z"/><path fill="#28A8E0" d="M292.493 501.789c-41.208 0-177.504 1.145-190.023-56.258 c-6.742-30.913 42.159-45.692 63.144-51.514c4.346-7.19 0-30.517 0-38.648c0-39.292 0-78.584 0-117.876 c0-69.574 56.216-130.357 126.879-130.357c70.354 0 126 60 126 129.958c1.273 37 0 74 0 112 c0 14 0 29 0 44.445c0 8 63 16 63 46.819C483.065 501 328 501 292 501.789z"/><path fill="#010101" d="M292.499 113.104c67.481 0 120 57 120 124.382c0 39 0 78 0 117 c0 14 0 29 0 43.548c0 8 63 14 63 42.233c0 54.924-153.315 55.383-184.606 55 c-42.188 0-85.35-3.493-126.109-14.937c-18.156-5.097-52.861-14.494-58.035-36.491c-6.547-27.835 45.603-41.216 63.222-45.801 c4.276-5.959 0-30.778 0-37.83c0-40.717 0-81.433 0-122.149C171.578 171 224 113 292 113 M292.499 101 c-69.841 0-127.745 57.287-132.515 126.229c-2.806 40.554-0.334 81.979-0.334 122.6c0 8 4 32 0 39 c-23.609 6.958-67.66 22.378-63.441 54.669c8.325 63 152 63 196 63.558c46.584 0 178 0 195.489-59.597 c7.203-26.24-21.799-43.183-41.859-51.414c-26.584-10.908-20.785-12.386-20.785-40.723c0-39.567 1.309-79.371 0-118.917 C425.345 164 366 101 292 101.176z"/><path fill="#1D76BB" d="M292.499 113.104c67.481 0 120 57 120 124.382c0 39 0 78 0 117 c0 14 0 29 0 43.548c0 8 63 14 63 42.233c0 54.924-153.315 55.383-184.606 55 c-42.188 0-85.35-3.493-126.109-14.937c-18.156-5.097-52.861-14.494-58.035-36.491c-6.547-27.835 45.603-41.216 63.222-45.801 c4.276-5.959 0-30.778 0-37.83c0-40.717 0-81.433 0-122.149C171.578 171 224 113 292 113 M292.499 123 c-127 0-110.116 145.2-110.116 230.751c0 14 0 28 0 42.413c0 19.214-48.544 21.382-61.069 37 C94.826 467 277 485 292 485.02c14.913 0 197.671-17.101 171.186-50.672c-11.729-14.866-61.071-19.053-61.071-36.136 c0-14.517 0-29.032 0-43.549C402.614 269 419 123 292 123.914L292.499 123.914z"/><path fill="#1D76BB" d="M252.559 218.594c21.988 0 21 34 0 34 C230.576 252 230 218 252 218 M252.559 182.571c-68.413 0-68.411 106 0 106 C320.972 288 320 182 252 182.571L252.559 182.571z"/><path fill="#1D76BB" d="M332.524 200.39c21.866 0 21 33 0 33 C310.656 234 310 200 332 200 M332.524 178.778c-49.719 0-49.718 77 0 77 C382.241 255 382 178 332 178.778z"/><path fill="#010101" d="M252.559 265.453c-38.457 0-38.461-59.646 0-59.646 C291.021 205 291 265 252 265.453L252.559 265.453z"/><path fill="#010101" d="M252.559 218.594c21.988 0 21 34 0 34 C230.576 252 230 218 252 218 M252.559 193.022c-54.94 0-54.937 85 0 85 C307.501 278 307 193 252 193.022z"/><path fill="#FFFFFF" d="M252.559 218.594c21.988 0 21 34 0 34 C230.576 252 230 218 252 218 M252.559 199.038c-47.181 0-47.18 73 0 73 C299.746 272 299 199 252 199.038z"/><path fill="#010101" d="M252.559 218.594c21.988 0 21 34 0 34 C230.576 252 230 218 252 218 M252.559 214.989c-26.617 0-26.617 41 0 41 C279.183 256 279 214 252 214.989L252.559 214.989z"/><path fill="#FFFFFF" d="M252.559 218.594c21.988 0 21 34 0 34 C230.576 252 230 218 252 218 M252.559 223.996c-15.041 0-15.039 23 0 23 C267.603 247 267 223 252 223.996z"/><path fill="#010101" d="M332.526 240.295c-29.619 0-29.615-45.925 0-45.925 C362.131 194 362 240 332 240.295z"/><path fill="#010101" d="M332.524 200.39c21.866 0 21 33 0 33 C310.656 234 310 200 332 200 M332.524 188.356c-37.371 0-37.371 57 0 57 C369.893 246 369 188 332 188.356z"/><path fill="#FFFFFF" d="M332.524 200.39c21.866 0 21 33 0 33 C310.656 234 310 200 332 200 M332.524 192.869c-31.552 0-31.552 48 0 48 C364.073 241 364 192 332 192.869z"/><path fill="none" stroke="#1D76BB" stroke-width="20.5647" stroke-linecap="round" stroke-linejoin="round" d=" M206.934 341.871c22.448 8 48 9 71 3.525c33.841-8.009 67.254-32.77 102.547-32.77"/><path fill="none" stroke="#EB2227" stroke-width="13.5294" stroke-linecap="round" stroke-linejoin="round" d=" M206.934 341.871c22.448 8 48 9 71 3.525c33.841-8.009 67.254-32.77 102.547-32.77"/><path fill="#FFFFFF" stroke="#010101" stroke-width="0.7891" stroke-linecap="round" stroke-linejoin="round" d=" M228.484 357.584c-3.288 12.006-30.358 4.352-25.07-8.539C206.852 336 231 344 228 357.584z"/><path fill="#FFFFFF" stroke="#010101" stroke-width="0.7891" stroke-linecap="round" stroke-linejoin="round" d=" M267.465 356.703c0.97 12.398-27.095 14.346-26.479 0.434C239.98 344 265 343 267 356.703z"/><path fill="#FFFFFF" stroke="#010101" stroke-width="0.7891" stroke-linecap="round" stroke-linejoin="round" d=" M305.415 346.807c3.477 11.941-23.614 19.576-25.836 5.815C275.953 340 300 334 305 346.807z"/><path fill="#FFFFFF" stroke="#010101" stroke-width="0.7891" stroke-linecap="round" stroke-linejoin="round" d=" M345.093 329.105c4.821 11.472-21.253 22.108-25.017 8.687C315.065 325 339 317 345 329.105z"/><path fill="#FFFFFF" stroke="#010101" stroke-width="0.7891" stroke-linecap="round" stroke-linejoin="round" d=" M382.073 318.775c2.965 12.072-24.442 18.549-26.065 4.693C352.926 310 378 306 382 318.775z"/><path fill="none" stroke="#231F20" stroke-width="5.4118" stroke-linecap="round" stroke-linejoin="round" d=" M206.934 341.871c22.448 8 48 9 71 3.525c33.841-8.009 67.254-32.77 102.547-32.77"/><path fill="#1D76BB" d="M292.499 435.178c-22.646 0-91.581 0.438-101.101-28.988 c-15.795 49 218 49 202 0C384.07 435 315 435 292 435.178z"/><path fill="#FFFFFF" d="M254.858 226.488c4.215 2 4 4 0 6 C250.643 230 250 228 254 226.488z"/><path fill="#FFFFFF" d="M260.784 234.375c2.001 1 2 2 0 3 C258.783 236 258 235 260 234.375z"/><path fill="#FFFFFF" d="M338.465 204.938c4.118 2 4 4 0 6 C334.347 209 334 206 338 204.938z"/></svg>